<mxfile host="app.diagrams.net" agent="Mozilla/5.0 (Windows NT 10.0; Win64; x64) AppleWebKit/537.36 (KHTML, like Gecko) Chrome/135.0.0.0 Safari/537.36" version="26.2.13">
  <diagram name="Trang-1" id="-2m3zkfMfWRAUJp8AQrv">
    <mxGraphModel dx="2983" dy="1703" grid="0" gridSize="10" guides="1" tooltips="1" connect="1" arrows="1" fold="1" page="1" pageScale="1" pageWidth="827" pageHeight="1169" math="0" shadow="0">
      <root>
        <mxCell id="0" />
        <mxCell id="1" parent="0" />
        <mxCell id="HvHcZhc-jqTBHGwA7SdA-494" value="" style="rounded=0;whiteSpace=wrap;html=1;" parent="1" vertex="1">
          <mxGeometry x="674.5" y="749" width="151.5" height="220" as="geometry" />
        </mxCell>
        <mxCell id="HvHcZhc-jqTBHGwA7SdA-395" value="" style="rounded=0;whiteSpace=wrap;html=1;" parent="1" vertex="1">
          <mxGeometry x="674.5" y="595" width="516.38" height="154" as="geometry" />
        </mxCell>
        <mxCell id="HvHcZhc-jqTBHGwA7SdA-296" value="" style="rounded=0;whiteSpace=wrap;html=1;" parent="1" vertex="1">
          <mxGeometry x="780.5" y="152" width="257.5" height="381" as="geometry" />
        </mxCell>
        <mxCell id="HvHcZhc-jqTBHGwA7SdA-295" value="" style="rounded=0;whiteSpace=wrap;html=1;" parent="1" vertex="1">
          <mxGeometry x="614" y="112" width="158" height="421" as="geometry" />
        </mxCell>
        <mxCell id="HvHcZhc-jqTBHGwA7SdA-495" value="" style="rounded=0;whiteSpace=wrap;html=1;" parent="1" vertex="1">
          <mxGeometry x="674.5" y="969" width="518.5" height="157" as="geometry" />
        </mxCell>
        <mxCell id="HvHcZhc-jqTBHGwA7SdA-594" value="" style="rounded=0;whiteSpace=wrap;html=1;" parent="1" vertex="1">
          <mxGeometry x="1374" y="83" width="348" height="381" as="geometry" />
        </mxCell>
        <mxCell id="HvHcZhc-jqTBHGwA7SdA-987" value="" style="rounded=0;whiteSpace=wrap;html=1;" parent="1" vertex="1">
          <mxGeometry x="1457" y="477" width="226" height="453" as="geometry" />
        </mxCell>
        <mxCell id="HvHcZhc-jqTBHGwA7SdA-1576" value="" style="rounded=0;whiteSpace=wrap;html=1;" parent="1" vertex="1">
          <mxGeometry x="1294" y="947" width="436.5" height="219.5" as="geometry" />
        </mxCell>
        <mxCell id="HvHcZhc-jqTBHGwA7SdA-1773" value="" style="rounded=0;whiteSpace=wrap;html=1;direction=south;" parent="1" vertex="1">
          <mxGeometry x="1758" y="689.5" width="219.5" height="436.5" as="geometry" />
        </mxCell>
        <mxCell id="HvHcZhc-jqTBHGwA7SdA-1872" value="NHÀ ĐA NĂNG" style="text;html=1;align=center;verticalAlign=middle;whiteSpace=wrap;rounded=0;" parent="1" vertex="1">
          <mxGeometry x="1760.25" y="697" width="94" height="30" as="geometry" />
        </mxCell>
        <mxCell id="HvHcZhc-jqTBHGwA7SdA-1873" value="KHU NHÀ L" style="text;html=1;align=center;verticalAlign=middle;whiteSpace=wrap;rounded=0;" parent="1" vertex="1">
          <mxGeometry x="1303" y="954" width="94" height="30" as="geometry" />
        </mxCell>
        <mxCell id="HvHcZhc-jqTBHGwA7SdA-1874" value="KHU NHÀ K" style="text;html=1;align=center;verticalAlign=middle;whiteSpace=wrap;rounded=0;" parent="1" vertex="1">
          <mxGeometry x="1462.49" y="487" width="94" height="30" as="geometry" />
        </mxCell>
        <mxCell id="HvHcZhc-jqTBHGwA7SdA-1875" value="KHU NHÀ J" style="text;html=1;align=center;verticalAlign=middle;whiteSpace=wrap;rounded=0;" parent="1" vertex="1">
          <mxGeometry x="1368.49" y="430" width="94" height="30" as="geometry" />
        </mxCell>
        <mxCell id="HvHcZhc-jqTBHGwA7SdA-1876" value="KHU NHÀ I" style="text;html=1;align=center;verticalAlign=middle;whiteSpace=wrap;rounded=0;" parent="1" vertex="1">
          <mxGeometry x="944" y="498" width="94" height="34" as="geometry" />
        </mxCell>
        <mxCell id="HvHcZhc-jqTBHGwA7SdA-1877" value="KHU NHÀ N" style="text;html=1;align=center;verticalAlign=middle;whiteSpace=wrap;rounded=0;" parent="1" vertex="1">
          <mxGeometry x="688.75" y="500" width="94" height="30" as="geometry" />
        </mxCell>
        <mxCell id="HvHcZhc-jqTBHGwA7SdA-1878" value="KHU NHÀ H" style="text;html=1;align=center;verticalAlign=middle;whiteSpace=wrap;rounded=0;" parent="1" vertex="1">
          <mxGeometry x="1091" y="601" width="94" height="30" as="geometry" />
        </mxCell>
        <mxCell id="lTb1wYiHKmWcIrSzWkal-1" value="" style="endArrow=none;html=1;rounded=0;strokeWidth=7;" parent="1" edge="1">
          <mxGeometry width="50" height="50" relative="1" as="geometry">
            <mxPoint x="571" y="529" as="sourcePoint" />
            <mxPoint x="1471" y="63" as="targetPoint" />
            <Array as="points">
              <mxPoint x="571" y="63" />
            </Array>
          </mxGeometry>
        </mxCell>
        <mxCell id="lTb1wYiHKmWcIrSzWkal-2" value="" style="endArrow=none;html=1;rounded=0;strokeWidth=7;" parent="1" edge="1">
          <mxGeometry width="50" height="50" relative="1" as="geometry">
            <mxPoint x="1183.37" y="1200" as="sourcePoint" />
            <mxPoint x="573.37" y="600" as="targetPoint" />
            <Array as="points">
              <mxPoint x="663" y="1200" />
            </Array>
          </mxGeometry>
        </mxCell>
        <mxCell id="lTb1wYiHKmWcIrSzWkal-3" value="" style="endArrow=none;html=1;rounded=0;strokeWidth=7;" parent="1" edge="1">
          <mxGeometry width="50" height="50" relative="1" as="geometry">
            <mxPoint x="2005" y="1207" as="sourcePoint" />
            <mxPoint x="1733" y="61" as="targetPoint" />
            <Array as="points">
              <mxPoint x="2005" y="681" />
            </Array>
          </mxGeometry>
        </mxCell>
        <mxCell id="lTb1wYiHKmWcIrSzWkal-4" value="" style="endArrow=none;html=1;rounded=0;strokeWidth=8;" parent="1" edge="1">
          <mxGeometry width="50" height="50" relative="1" as="geometry">
            <mxPoint x="1295.63" y="1203" as="sourcePoint" />
            <mxPoint x="2001.63" y="1203" as="targetPoint" />
          </mxGeometry>
        </mxCell>
        <mxCell id="lTb1wYiHKmWcIrSzWkal-5" value="SV" style="rounded=0;whiteSpace=wrap;html=1;strokeColor=#000000;fillColor=#FF3333;" parent="1" vertex="1">
          <mxGeometry x="1140" y="703" width="45" height="28.5" as="geometry" />
        </mxCell>
        <mxCell id="lTb1wYiHKmWcIrSzWkal-22" style="edgeStyle=orthogonalEdgeStyle;rounded=0;orthogonalLoop=1;jettySize=auto;html=1;exitX=0;exitY=0.5;exitDx=0;exitDy=0;exitPerimeter=0;" parent="1" source="lTb1wYiHKmWcIrSzWkal-8" target="lTb1wYiHKmWcIrSzWkal-21" edge="1">
          <mxGeometry relative="1" as="geometry" />
        </mxCell>
        <mxCell id="lTb1wYiHKmWcIrSzWkal-8" value="" style="fontColor=#0066CC;verticalAlign=top;verticalLabelPosition=bottom;labelPosition=center;align=center;html=1;outlineConnect=0;fillColor=#CCCCCC;strokeColor=#6881B3;gradientColor=none;gradientDirection=north;strokeWidth=2;shape=mxgraph.networks.switch;" parent="1" vertex="1">
          <mxGeometry x="1066" y="727" width="63" height="22" as="geometry" />
        </mxCell>
        <mxCell id="lTb1wYiHKmWcIrSzWkal-9" value="" style="fontColor=#0066CC;verticalAlign=top;verticalLabelPosition=bottom;labelPosition=center;align=center;html=1;outlineConnect=0;fillColor=#CCCCCC;strokeColor=#6881B3;gradientColor=none;gradientDirection=north;strokeWidth=2;shape=mxgraph.networks.switch;direction=north;" parent="1" vertex="1">
          <mxGeometry x="1168" y="632.5" width="22.88" height="57" as="geometry" />
        </mxCell>
        <mxCell id="lTb1wYiHKmWcIrSzWkal-10" style="edgeStyle=orthogonalEdgeStyle;rounded=0;orthogonalLoop=1;jettySize=auto;html=1;exitX=0.5;exitY=1;exitDx=0;exitDy=0;" parent="1" source="lTb1wYiHKmWcIrSzWkal-5" target="lTb1wYiHKmWcIrSzWkal-5" edge="1">
          <mxGeometry relative="1" as="geometry" />
        </mxCell>
        <mxCell id="lTb1wYiHKmWcIrSzWkal-12" value="AP" style="rounded=0;whiteSpace=wrap;html=1;fillColor=#CCFFCC;" parent="1" vertex="1">
          <mxGeometry x="936" y="664" width="64" height="30" as="geometry" />
        </mxCell>
        <mxCell id="lTb1wYiHKmWcIrSzWkal-13" value="AP" style="rounded=0;whiteSpace=wrap;html=1;fillColor=#CCFFCC;" parent="1" vertex="1">
          <mxGeometry x="758" y="667" width="64" height="30" as="geometry" />
        </mxCell>
        <mxCell id="lTb1wYiHKmWcIrSzWkal-15" value="AP" style="rounded=0;whiteSpace=wrap;html=1;fillColor=#CCFFCC;" parent="1" vertex="1">
          <mxGeometry x="758" y="1046" width="64" height="30" as="geometry" />
        </mxCell>
        <mxCell id="lTb1wYiHKmWcIrSzWkal-16" value="AP" style="rounded=0;whiteSpace=wrap;html=1;fillColor=#CCFFCC;" parent="1" vertex="1">
          <mxGeometry x="1094" y="1041.75" width="64" height="30" as="geometry" />
        </mxCell>
        <mxCell id="lTb1wYiHKmWcIrSzWkal-19" style="edgeStyle=orthogonalEdgeStyle;rounded=0;orthogonalLoop=1;jettySize=auto;html=1;entryX=1;entryY=0.5;entryDx=0;entryDy=0;entryPerimeter=0;" parent="1" source="lTb1wYiHKmWcIrSzWkal-5" target="lTb1wYiHKmWcIrSzWkal-8" edge="1">
          <mxGeometry relative="1" as="geometry">
            <Array as="points">
              <mxPoint x="1149" y="738" />
            </Array>
          </mxGeometry>
        </mxCell>
        <mxCell id="lTb1wYiHKmWcIrSzWkal-20" style="edgeStyle=orthogonalEdgeStyle;rounded=0;orthogonalLoop=1;jettySize=auto;html=1;exitX=0.25;exitY=0;exitDx=0;exitDy=0;entryX=0;entryY=0.5;entryDx=0;entryDy=0;entryPerimeter=0;" parent="1" source="lTb1wYiHKmWcIrSzWkal-5" target="lTb1wYiHKmWcIrSzWkal-9" edge="1">
          <mxGeometry relative="1" as="geometry" />
        </mxCell>
        <mxCell id="lTb1wYiHKmWcIrSzWkal-23" style="edgeStyle=orthogonalEdgeStyle;rounded=0;orthogonalLoop=1;jettySize=auto;html=1;exitX=0.95;exitY=0.05;exitDx=0;exitDy=0;exitPerimeter=0;" parent="1" source="lTb1wYiHKmWcIrSzWkal-21" target="lTb1wYiHKmWcIrSzWkal-12" edge="1">
          <mxGeometry relative="1" as="geometry" />
        </mxCell>
        <mxCell id="lTb1wYiHKmWcIrSzWkal-24" style="edgeStyle=orthogonalEdgeStyle;rounded=0;orthogonalLoop=1;jettySize=auto;html=1;exitX=0.05;exitY=0.05;exitDx=0;exitDy=0;exitPerimeter=0;entryX=0.25;entryY=1;entryDx=0;entryDy=0;" parent="1" source="lTb1wYiHKmWcIrSzWkal-21" target="lTb1wYiHKmWcIrSzWkal-13" edge="1">
          <mxGeometry relative="1" as="geometry" />
        </mxCell>
        <mxCell id="lTb1wYiHKmWcIrSzWkal-21" value="" style="fontColor=#0066CC;verticalAlign=top;verticalLabelPosition=bottom;labelPosition=center;align=center;html=1;outlineConnect=0;fillColor=#CCCCCC;strokeColor=#6881B3;gradientColor=none;gradientDirection=north;strokeWidth=2;shape=mxgraph.networks.switch;rotation=0;" parent="1" vertex="1">
          <mxGeometry x="764" y="727" width="68" height="23" as="geometry" />
        </mxCell>
        <mxCell id="lTb1wYiHKmWcIrSzWkal-29" style="edgeStyle=orthogonalEdgeStyle;rounded=0;orthogonalLoop=1;jettySize=auto;html=1;exitX=0;exitY=0.5;exitDx=0;exitDy=0;exitPerimeter=0;entryX=0.5;entryY=0;entryDx=0;entryDy=0;" parent="1" source="lTb1wYiHKmWcIrSzWkal-25" target="lTb1wYiHKmWcIrSzWkal-16" edge="1">
          <mxGeometry relative="1" as="geometry" />
        </mxCell>
        <mxCell id="nGtqdJ-OpzND65D44csV-1" style="edgeStyle=orthogonalEdgeStyle;rounded=0;orthogonalLoop=1;jettySize=auto;html=1;exitX=0.5;exitY=0;exitDx=0;exitDy=0;exitPerimeter=0;entryX=0.5;entryY=0;entryDx=0;entryDy=0;" parent="1" source="lTb1wYiHKmWcIrSzWkal-25" target="lTb1wYiHKmWcIrSzWkal-15" edge="1">
          <mxGeometry relative="1" as="geometry" />
        </mxCell>
        <mxCell id="lTb1wYiHKmWcIrSzWkal-25" value="" style="fontColor=#0066CC;verticalAlign=top;verticalLabelPosition=bottom;labelPosition=center;align=center;html=1;outlineConnect=0;fillColor=#CCCCCC;strokeColor=#6881B3;gradientColor=none;gradientDirection=north;strokeWidth=2;shape=mxgraph.networks.switch;rotation=-181;" parent="1" vertex="1">
          <mxGeometry x="837" y="969" width="68" height="23" as="geometry" />
        </mxCell>
        <mxCell id="lTb1wYiHKmWcIrSzWkal-26" style="edgeStyle=orthogonalEdgeStyle;rounded=0;orthogonalLoop=1;jettySize=auto;html=1;exitX=0.1;exitY=1;exitDx=0;exitDy=0;exitPerimeter=0;entryX=1;entryY=0.5;entryDx=0;entryDy=0;entryPerimeter=0;" parent="1" source="lTb1wYiHKmWcIrSzWkal-8" target="lTb1wYiHKmWcIrSzWkal-25" edge="1">
          <mxGeometry relative="1" as="geometry">
            <Array as="points">
              <mxPoint x="825" y="749" />
              <mxPoint x="825" y="981" />
            </Array>
          </mxGeometry>
        </mxCell>
        <mxCell id="lTb1wYiHKmWcIrSzWkal-30" value="" style="endArrow=none;html=1;rounded=0;strokeWidth=8;" parent="1" edge="1">
          <mxGeometry width="50" height="50" relative="1" as="geometry">
            <mxPoint x="538" y="591" as="sourcePoint" />
            <mxPoint x="570" y="525" as="targetPoint" />
          </mxGeometry>
        </mxCell>
        <mxCell id="lTb1wYiHKmWcIrSzWkal-31" value="" style="endArrow=none;html=1;rounded=0;strokeWidth=7;" parent="1" edge="1">
          <mxGeometry width="50" height="50" relative="1" as="geometry">
            <mxPoint x="1199" y="1233" as="sourcePoint" />
            <mxPoint x="1294" y="1204" as="targetPoint" />
          </mxGeometry>
        </mxCell>
        <mxCell id="lTb1wYiHKmWcIrSzWkal-38" style="edgeStyle=orthogonalEdgeStyle;rounded=0;orthogonalLoop=1;jettySize=auto;html=1;exitX=0.5;exitY=0;exitDx=0;exitDy=0;exitPerimeter=0;entryX=0.5;entryY=1;entryDx=0;entryDy=0;" parent="1" source="lTb1wYiHKmWcIrSzWkal-32" target="lTb1wYiHKmWcIrSzWkal-37" edge="1">
          <mxGeometry relative="1" as="geometry" />
        </mxCell>
        <mxCell id="lTb1wYiHKmWcIrSzWkal-39" style="edgeStyle=orthogonalEdgeStyle;rounded=0;orthogonalLoop=1;jettySize=auto;html=1;exitX=0;exitY=0.5;exitDx=0;exitDy=0;exitPerimeter=0;entryX=0.5;entryY=1;entryDx=0;entryDy=0;" parent="1" source="lTb1wYiHKmWcIrSzWkal-32" target="lTb1wYiHKmWcIrSzWkal-36" edge="1">
          <mxGeometry relative="1" as="geometry" />
        </mxCell>
        <mxCell id="lTb1wYiHKmWcIrSzWkal-32" value="" style="fontColor=#0066CC;verticalAlign=top;verticalLabelPosition=bottom;labelPosition=center;align=center;html=1;outlineConnect=0;fillColor=#CCCCCC;strokeColor=#6881B3;gradientColor=none;gradientDirection=north;strokeWidth=2;shape=mxgraph.networks.switch;" parent="1" vertex="1">
          <mxGeometry x="790" y="511" width="68" height="22" as="geometry" />
        </mxCell>
        <mxCell id="lTb1wYiHKmWcIrSzWkal-34" style="edgeStyle=orthogonalEdgeStyle;rounded=0;orthogonalLoop=1;jettySize=auto;html=1;exitX=0.5;exitY=0;exitDx=0;exitDy=0;exitPerimeter=0;entryX=0.5;entryY=1;entryDx=0;entryDy=0;entryPerimeter=0;" parent="1" source="lTb1wYiHKmWcIrSzWkal-8" target="lTb1wYiHKmWcIrSzWkal-32" edge="1">
          <mxGeometry relative="1" as="geometry">
            <Array as="points">
              <mxPoint x="1097" y="597" />
              <mxPoint x="824" y="597" />
            </Array>
          </mxGeometry>
        </mxCell>
        <mxCell id="lTb1wYiHKmWcIrSzWkal-36" value="AP" style="rounded=0;whiteSpace=wrap;html=1;fillColor=#CCFFCC;" parent="1" vertex="1">
          <mxGeometry x="661" y="304" width="64" height="30" as="geometry" />
        </mxCell>
        <mxCell id="lTb1wYiHKmWcIrSzWkal-37" value="AP" style="rounded=0;whiteSpace=wrap;html=1;fillColor=#CCFFCC;" parent="1" vertex="1">
          <mxGeometry x="855" y="298" width="64" height="30" as="geometry" />
        </mxCell>
        <mxCell id="nGtqdJ-OpzND65D44csV-2" style="edgeStyle=orthogonalEdgeStyle;rounded=0;orthogonalLoop=1;jettySize=auto;html=1;exitX=0.5;exitY=0;exitDx=0;exitDy=0;exitPerimeter=0;entryX=0.5;entryY=1;entryDx=0;entryDy=0;" parent="1" source="lTb1wYiHKmWcIrSzWkal-40" target="o29gqdmNGSgc_leKDFlv-10" edge="1">
          <mxGeometry relative="1" as="geometry" />
        </mxCell>
        <mxCell id="lTb1wYiHKmWcIrSzWkal-40" value="" style="fontColor=#0066CC;verticalAlign=top;verticalLabelPosition=bottom;labelPosition=center;align=center;html=1;outlineConnect=0;fillColor=#CCCCCC;strokeColor=#6881B3;gradientColor=none;gradientDirection=north;strokeWidth=2;shape=mxgraph.networks.switch;rotation=90;" parent="1" vertex="1">
          <mxGeometry x="1437" y="649.5" width="65" height="23" as="geometry" />
        </mxCell>
        <mxCell id="o29gqdmNGSgc_leKDFlv-16" style="edgeStyle=orthogonalEdgeStyle;rounded=0;orthogonalLoop=1;jettySize=auto;html=1;exitX=0;exitY=0.5;exitDx=0;exitDy=0;exitPerimeter=0;entryX=0.5;entryY=1;entryDx=0;entryDy=0;" parent="1" source="lTb1wYiHKmWcIrSzWkal-41" target="o29gqdmNGSgc_leKDFlv-11" edge="1">
          <mxGeometry relative="1" as="geometry" />
        </mxCell>
        <mxCell id="o29gqdmNGSgc_leKDFlv-17" style="edgeStyle=orthogonalEdgeStyle;rounded=0;orthogonalLoop=1;jettySize=auto;html=1;exitX=0.5;exitY=0;exitDx=0;exitDy=0;exitPerimeter=0;entryX=1;entryY=0.5;entryDx=0;entryDy=0;" parent="1" source="lTb1wYiHKmWcIrSzWkal-41" target="o29gqdmNGSgc_leKDFlv-12" edge="1">
          <mxGeometry relative="1" as="geometry" />
        </mxCell>
        <mxCell id="lTb1wYiHKmWcIrSzWkal-41" value="" style="fontColor=#0066CC;verticalAlign=top;verticalLabelPosition=bottom;labelPosition=center;align=center;html=1;outlineConnect=0;fillColor=#CCCCCC;strokeColor=#6881B3;gradientColor=none;gradientDirection=north;strokeWidth=2;shape=mxgraph.networks.switch;rotation=-180;" parent="1" vertex="1">
          <mxGeometry x="1636" y="948" width="73" height="21" as="geometry" />
        </mxCell>
        <mxCell id="o29gqdmNGSgc_leKDFlv-13" style="edgeStyle=orthogonalEdgeStyle;rounded=0;orthogonalLoop=1;jettySize=auto;html=1;exitX=0.5;exitY=0;exitDx=0;exitDy=0;exitPerimeter=0;entryX=0.5;entryY=1;entryDx=0;entryDy=0;" parent="1" source="lTb1wYiHKmWcIrSzWkal-42" target="o29gqdmNGSgc_leKDFlv-8" edge="1">
          <mxGeometry relative="1" as="geometry" />
        </mxCell>
        <mxCell id="nGtqdJ-OpzND65D44csV-4" style="edgeStyle=orthogonalEdgeStyle;rounded=0;orthogonalLoop=1;jettySize=auto;html=1;exitX=0.5;exitY=0;exitDx=0;exitDy=0;exitPerimeter=0;entryX=0.5;entryY=1;entryDx=0;entryDy=0;" parent="1" source="lTb1wYiHKmWcIrSzWkal-42" target="nGtqdJ-OpzND65D44csV-3" edge="1">
          <mxGeometry relative="1" as="geometry" />
        </mxCell>
        <mxCell id="lTb1wYiHKmWcIrSzWkal-42" value="" style="fontColor=#0066CC;verticalAlign=top;verticalLabelPosition=bottom;labelPosition=center;align=center;html=1;outlineConnect=0;fillColor=#CCCCCC;strokeColor=#6881B3;gradientColor=none;gradientDirection=north;strokeWidth=2;shape=mxgraph.networks.switch;" parent="1" vertex="1">
          <mxGeometry x="1462.25" y="441" width="73.75" height="23" as="geometry" />
        </mxCell>
        <mxCell id="o29gqdmNGSgc_leKDFlv-2" value="" style="endArrow=none;html=1;rounded=0;strokeWidth=7;" parent="1" edge="1">
          <mxGeometry width="50" height="50" relative="1" as="geometry">
            <mxPoint x="1540" y="63" as="sourcePoint" />
            <mxPoint x="1734" y="63" as="targetPoint" />
          </mxGeometry>
        </mxCell>
        <mxCell id="o29gqdmNGSgc_leKDFlv-3" value="" style="endArrow=none;html=1;rounded=0;strokeWidth=7;" parent="1" edge="1">
          <mxGeometry width="50" height="50" relative="1" as="geometry">
            <mxPoint x="1469" y="62" as="sourcePoint" />
            <mxPoint x="1511" y="17" as="targetPoint" />
          </mxGeometry>
        </mxCell>
        <mxCell id="o29gqdmNGSgc_leKDFlv-5" style="edgeStyle=orthogonalEdgeStyle;rounded=0;orthogonalLoop=1;jettySize=auto;html=1;exitX=0.5;exitY=1;exitDx=0;exitDy=0;exitPerimeter=0;entryX=0.5;entryY=1;entryDx=0;entryDy=0;entryPerimeter=0;" parent="1" source="lTb1wYiHKmWcIrSzWkal-9" target="lTb1wYiHKmWcIrSzWkal-40" edge="1">
          <mxGeometry relative="1" as="geometry" />
        </mxCell>
        <mxCell id="o29gqdmNGSgc_leKDFlv-6" style="edgeStyle=orthogonalEdgeStyle;rounded=0;orthogonalLoop=1;jettySize=auto;html=1;exitX=0;exitY=0.5;exitDx=0;exitDy=0;exitPerimeter=0;entryX=0.1;entryY=1;entryDx=0;entryDy=0;entryPerimeter=0;" parent="1" source="lTb1wYiHKmWcIrSzWkal-40" target="lTb1wYiHKmWcIrSzWkal-42" edge="1">
          <mxGeometry relative="1" as="geometry" />
        </mxCell>
        <mxCell id="o29gqdmNGSgc_leKDFlv-7" style="edgeStyle=orthogonalEdgeStyle;rounded=0;orthogonalLoop=1;jettySize=auto;html=1;exitX=1;exitY=0.5;exitDx=0;exitDy=0;exitPerimeter=0;entryX=1;entryY=0.5;entryDx=0;entryDy=0;entryPerimeter=0;" parent="1" source="lTb1wYiHKmWcIrSzWkal-40" target="lTb1wYiHKmWcIrSzWkal-41" edge="1">
          <mxGeometry relative="1" as="geometry" />
        </mxCell>
        <mxCell id="o29gqdmNGSgc_leKDFlv-8" value="AP" style="rounded=0;whiteSpace=wrap;html=1;fillColor=#CCFFCC;" parent="1" vertex="1">
          <mxGeometry x="1406" y="238" width="64" height="30" as="geometry" />
        </mxCell>
        <mxCell id="o29gqdmNGSgc_leKDFlv-10" value="AP" style="rounded=0;whiteSpace=wrap;html=1;fillColor=#CCFFCC;rotation=90;" parent="1" vertex="1">
          <mxGeometry x="1553" y="701.5" width="64" height="30" as="geometry" />
        </mxCell>
        <mxCell id="o29gqdmNGSgc_leKDFlv-11" value="AP" style="rounded=0;whiteSpace=wrap;html=1;fillColor=#CCFFCC;" parent="1" vertex="1">
          <mxGeometry x="1840" y="896" width="64" height="30" as="geometry" />
        </mxCell>
        <mxCell id="o29gqdmNGSgc_leKDFlv-12" value="AP" style="rounded=0;whiteSpace=wrap;html=1;fillColor=#CCFFCC;" parent="1" vertex="1">
          <mxGeometry x="1486" y="1053" width="64" height="30" as="geometry" />
        </mxCell>
        <mxCell id="nGtqdJ-OpzND65D44csV-3" value="AP" style="rounded=0;whiteSpace=wrap;html=1;fillColor=#CCFFCC;" parent="1" vertex="1">
          <mxGeometry x="1585" y="236" width="64" height="30" as="geometry" />
        </mxCell>
      </root>
    </mxGraphModel>
  </diagram>
</mxfile>
